<svg width="144" height="144" viewBox="0 0 144 144" fill="none" xmlns="http://www.w3.org/2000/svg">
<path d="M0 0H144V144H0V0Z" fill="#291621"/>
<path d="M71.43 122.08C106.458 122.08 124.389 96.782 124.389 71.623C124.389 46.742 106.875 22 71.43 22C37.097 22 20 47.02 20 72.04C20 97.06 37.097 122.08 71.43 122.08ZM65.453 26.17C118.273 26.17 134.536 117.771 76.156 117.771C24.587 117.771 11.938 26.17 65.453 26.17ZM56.557 68.982V70.65C66.287 70.65 70.318 78.573 70.318 88.998H71.847C71.847 78.573 75.878 70.65 85.608 70.65V68.982C75.878 68.982 71.847 61.059 71.847 50.634H70.318C70.318 61.059 66.287 68.982 56.557 68.982Z" fill="white"/>
</svg>
