<svg width="1339" height="282" viewBox="0 0 1339 282" fill="none" xmlns="http://www.w3.org/2000/svg">
<path d="M1073.52 245.891V243.736H1083C1096.15 243.736 1102.83 236.625 1102.83 222.617V15.3009L1096.36 0.215492H1104.77C1119.42 34.6963 1132.79 65.7291 1145.07 94.3912L1160.59 131.027C1175.89 166.801 1189.68 198.696 1193.99 208.609C1192.91 202.79 1192.48 196.541 1192.48 190.291V186.196C1193.13 152.362 1207.13 123.269 1220.93 94.1757C1235.8 63.3585 1248.94 34.6963 1251.74 0.215492H1338.38V37.7134H1336.22V28.2312C1336.22 15.3009 1331.05 2.15505 1307.56 2.15505H1259.72V107.537H1279.33C1293.34 107.537 1300.45 100.856 1300.45 87.7106V78.2284H1302.6V138.785H1300.45V128.01C1300.45 115.08 1292.26 109.692 1279.33 109.692H1259.72V243.736H1307.99C1331.27 243.736 1336.22 232.53 1336.22 217.876V208.393H1338.38V245.891H1229.12V243.736H1238.6C1248.3 243.736 1250.88 236.194 1250.88 223.048V20.042C1245.49 46.9801 1234.29 70.6857 1223.3 93.9602C1217.48 105.382 1212.52 116.804 1207.57 128.226C1197.87 151.285 1194.64 171.327 1194.64 188.567C1194.64 193.093 1195.07 199.773 1195.93 208.824C1196.57 218.091 1200.45 230.159 1207.13 245.891H1200.45C1198.73 241.797 1170.5 175.852 1145.5 116.373C1124.81 67.0221 1105.63 21.9815 1104.99 20.2575V222.617C1104.99 235.547 1111.67 243.736 1124.6 243.736H1134.08V245.891H1073.52Z" fill="#823361"/>
<path d="M804.721 125.208H802.566V87.7106H955.359V125.208H953.204V115.726C953.204 100.641 948.032 89.6501 924.758 89.6501H883.381V245.891H874.545V89.6501H833.168C809.894 89.6501 804.721 100.641 804.721 115.726V125.208ZM852.779 68.0996H862.261C871.959 68.0996 874.545 60.3414 874.545 47.1956V0.215492H883.381V47.1956C883.381 60.3414 885.536 68.0996 895.665 68.0996H905.147V70.0392H852.779V68.0996Z" fill="#823361"/>
<path d="M603.379 2.15505H593.897V0.215488H646.265V2.15505H636.782C626.223 2.15505 624.499 12.0683 624.499 23.059V145.897C625.576 202.144 648.42 243.521 696.693 244.167C746.69 244.167 769.965 203.652 769.965 153.655V23.059C769.965 9.91323 767.379 2.15505 757.681 2.15505H748.199V0H793.886V2.15505H784.188C774.49 2.15505 772.12 9.91323 772.12 23.059V153.655C772.12 208.178 745.613 246.322 696.693 246.322C648.204 246.322 615.878 208.609 615.878 145.897V23.059C615.878 10.1287 613.508 2.15505 603.379 2.15505Z" fill="#823361"/>
<path d="M339.257 216.583C339.042 213.35 338.826 209.902 338.826 206.238C338.826 137.061 390.763 82.9695 459.94 82.9695C529.117 82.9695 581.054 137.061 581.054 206.238C581.054 220.246 579.114 233.392 575.02 245.891H563.167C566.615 233.392 568.339 220.246 568.339 206.238C568.339 139.216 526.531 85.1245 459.94 85.1245C393.349 85.1245 351.541 139.216 351.541 206.238C351.541 220.246 353.265 233.392 356.713 245.891H344.86C342.921 239.642 341.412 233.177 340.335 226.496C339.688 223.263 339.473 219.815 339.257 216.583ZM354.774 2.15505C354.127 1.29302 353.912 0.646523 353.696 0.215492H364.471C365.118 1.72405 365.764 2.80157 366.411 4.3101C384.298 38.1444 416.839 60.9879 459.94 60.9879C503.041 60.9879 535.582 38.1444 553.469 4.3101C554.116 2.80157 554.762 1.72405 555.409 0.215492H566.184C565.538 1.72405 564.676 2.80157 564.029 4.3101C543.341 39.8685 504.981 62.9275 459.94 62.9275C414.9 62.9275 376.54 39.8685 355.851 4.3101C355.636 3.66358 355.205 2.80157 354.774 2.15505Z" fill="#823361"/>
<path d="M0 188.351V185.981C0 181.024 0.431009 175.637 1.50854 170.249C2.58606 163.999 4.0946 157.534 6.46515 150.854L59.2639 0C73.0562 35.5583 139.216 215.505 143.957 225.849C157.319 258.822 187.274 279.51 223.479 279.51C281.45 279.51 312.051 232.746 312.051 176.93C312.051 131.889 275.2 110.123 246.969 109.477H205.161V226.927C205.376 238.995 208.178 243.736 217.445 243.736H226.927V245.891H174.775V243.736H184.257C193.955 243.736 196.541 238.133 196.541 224.987V20.904C196.541 7.75818 193.955 2.15505 184.257 2.15505H174.775V0H244.814C280.803 0 306.017 19.18 306.664 54.5228V55.6003C306.017 85.1245 285.544 107.106 257.96 108.83C287.915 112.925 321.103 143.742 321.749 183.395C321.749 237.487 277.571 281.665 223.479 281.665C185.119 281.665 148.914 260.546 135.768 227.789C135.768 227.573 135.553 227.573 135.553 226.927C135.337 226.711 135.337 226.496 135.122 226.28C135.122 225.849 135.122 225.634 134.906 225.418C116.373 178.007 80.3834 139.216 36.2049 139.216C27.8002 139.216 19.3955 140.509 11.2063 143.311L8.4047 151.5C1.07753 173.697 -2.15505 200.204 11.6373 218.953C19.18 229.513 29.5242 236.84 40.7305 240.504C42.239 240.935 43.7475 241.15 45.4716 241.15C53.8763 241.15 62.0655 234.47 69.1771 216.367L70.6857 217.014L59.9104 245.891C39.2219 245.891 21.1195 235.763 9.91324 220.246C3.66359 211.411 0.43101 199.342 0.215505 192.446C-2.81067e-07 190.938 0 189.429 0 188.351ZM244.383 2.15505H205.161V107.537H248.262C280.157 107.537 298.259 87.9261 298.259 54.9538C298.259 21.335 278.217 2.15505 244.383 2.15505ZM12.0683 140.94C20.2575 138.354 28.2312 137.061 36.2049 137.061C76.2888 137.061 107.537 168.525 125.855 201.282C121.329 189.86 116.804 177.576 114.218 170.896L112.063 165.292C101.718 139.432 59.2639 26.7226 56.8934 19.3955L55.6003 16.3784L12.0683 140.94Z" fill="#823361"/>
</svg>
