<svg width="965" height="182" viewBox="0 0 965 182" fill="none" xmlns="http://www.w3.org/2000/svg">
<path d="M808.216 139.556C808.077 137.471 807.938 135.247 807.938 132.884C807.938 88.265 841.437 53.376 886.056 53.376C930.675 53.376 964.174 88.265 964.174 132.884C964.174 141.919 962.923 150.398 960.281 158.46H952.637C954.861 150.398 955.973 141.919 955.973 132.884C955.973 89.655 929.007 54.766 886.056 54.766C843.105 54.766 816.138 89.655 816.138 132.884C816.138 141.919 817.251 150.398 819.475 158.46H811.83C810.579 154.429 809.606 150.259 808.911 145.95C808.494 143.865 808.355 141.641 808.216 139.556ZM818.224 1.25101C817.807 0.695 817.668 0.278013 817.529 0H824.479C824.896 0.973012 825.312 1.66801 825.729 2.64101C837.266 24.464 858.256 39.198 886.056 39.198C913.856 39.198 934.845 24.464 946.382 2.64101C946.799 1.66801 947.216 0.973012 947.633 0H954.583C954.166 0.973012 953.61 1.66801 953.193 2.64101C939.849 25.576 915.107 40.449 886.056 40.449C857.005 40.449 832.263 25.576 818.919 2.64101C818.78 2.224 818.502 1.66801 818.224 1.25101Z" fill="white"/>
<path d="M765.857 157.07H771.973C778.506 157.07 779.896 152.066 779.896 143.587V44.897C779.757 37.113 777.95 32.943 771.973 32.943H765.857V31.553H799.634V32.943H793.518C787.402 32.943 785.734 37.53 785.595 45.314V143.726C785.595 152.066 787.263 157.07 793.518 157.07H799.634V158.46H765.857V157.07ZM771.973 10.703C775.587 10.008 778.228 8.61801 779.757 6.811C781.286 5.004 782.398 2.78001 782.815 0C783.788 5.699 787.402 9.313 793.518 10.703C787.263 12.371 783.649 15.985 782.815 21.545C782.259 18.626 781.147 16.263 779.479 14.456C777.672 12.649 775.17 11.398 771.973 10.703Z" fill="white"/>
<path d="M696.357 158.46V157.07H702.473C708.45 157.07 710.535 152.483 710.535 145.255V13.066C710.118 5.699 708.45 1.25101 702.473 1.25101H696.357V0H730.134V1.25101H724.018C718.041 1.25101 716.234 5.56001 716.095 13.344V157.348C776.977 160.267 811.449 177.642 848.562 177.642C863.018 177.642 876.918 175.001 893.737 167.912L894.432 169.163C874.833 178.198 858.709 181.534 842.446 181.534C800.329 181.534 763.216 159.016 698.164 158.46H696.357Z" fill="white"/>
<path d="M532.116 139.556C531.977 137.471 531.838 135.247 531.838 132.884C531.838 88.265 565.337 53.376 609.956 53.376C654.575 53.376 688.074 88.265 688.074 132.884C688.074 141.919 686.823 150.398 684.182 158.46H676.537C678.761 150.398 679.873 141.919 679.873 132.884C679.873 89.655 652.907 54.766 609.956 54.766C567.005 54.766 540.039 89.655 540.039 132.884C540.039 141.919 541.151 150.398 543.375 158.46H535.73C534.479 154.429 533.506 150.259 532.811 145.95C532.394 143.865 532.255 141.641 532.116 139.556ZM542.124 1.25101C541.707 0.695 541.568 0.278013 541.429 0H548.379C548.796 0.973012 549.213 1.66801 549.63 2.64101C561.167 24.464 582.156 39.198 609.956 39.198C637.756 39.198 658.745 24.464 670.282 2.64101C670.699 1.66801 671.116 0.973012 671.533 0H678.483C678.066 0.973012 677.51 1.66801 677.093 2.64101C663.749 25.576 639.007 40.449 609.956 40.449C580.905 40.449 556.163 25.576 542.819 2.64101C542.68 2.224 542.402 1.66801 542.124 1.25101Z" fill="white"/>
<path d="M447.271 0H531.087L499.396 97.161L498.005 96.883L498.978 93.964C499.534 91.879 500.507 89.238 501.48 86.041L501.62 85.763C502.037 84.234 502.314 82.844 502.314 81.732C502.314 80.203 502.036 77.562 499.673 74.782C497.171 72.002 493.418 70.612 488.553 70.612H467.008V143.726C467.008 152.066 468.398 157.07 474.931 157.07H481.047V158.46H447.271V157.07H453.387C459.92 157.07 461.31 152.066 461.31 143.587V14.734C461.31 6.25501 459.92 1.25101 453.387 1.25101H447.271V0ZM507.04 1.25101H467.008V69.222H492.029C500.508 69.222 507.735 66.164 510.515 58.38L510.793 57.546C515.38 43.507 520.246 28.217 523.999 16.958C523.582 8.201 520.524 1.66801 507.04 1.25101Z" fill="white"/>
<path d="M344.617 80.62H343.227V56.434H441.778V80.62H440.388V74.504C440.388 64.774 437.052 57.685 422.04 57.685H395.352V158.46H389.653V57.685H362.965C347.953 57.685 344.617 64.774 344.617 74.504V80.62ZM375.614 43.785H381.73C387.985 43.785 389.653 38.781 389.653 30.302V0H395.352V30.302C395.352 38.781 396.742 43.785 403.275 43.785H409.391V45.036H375.614V43.785Z" fill="white"/>
<path d="M108.051 79.647C108.051 35.028 139.743 0.139008 184.362 0.139008H273.739C313.354 0.139008 331.285 16.402 331.702 45.314C331.702 77.145 303.763 89.794 273.878 91.601C314.049 99.802 301.261 157.348 340.459 157.348V158.599C292.504 158.599 304.041 93.269 267.623 91.74V90.767C296.952 90.072 326.003 77.701 326.003 46.148V45.453C326.003 18.209 313.076 2.22401 273.739 1.52901H199.096C235.792 8.201 260.673 40.032 260.673 79.647C260.673 124.266 228.981 159.016 184.362 159.016C139.743 159.016 108.051 124.266 108.051 79.647ZM119.31 49.206C116.113 58.797 114.445 68.944 114.445 79.647C114.445 122.737 141.411 157.765 184.362 157.765C227.591 157.765 254.279 122.737 254.279 79.647C254.279 36.418 227.591 1.52901 184.362 1.52901C151.975 1.52901 128.901 20.989 119.31 49.206Z" fill="white"/>
<path d="M0 158.46V157.07H6.116C12.649 157.07 14.039 152.066 14.039 143.726V13.483C13.9 5.699 12.093 1.25101 6.116 1.25101H0V0H41.7C81.454 0 99.246 18.904 99.663 47.816C99.663 81.732 67.693 95.632 35.584 96.049V94.937C64.774 94.52 94.103 80.203 94.103 47.955C93.686 20.572 81.176 2.36301 41.7 1.25101H19.738V143.726C19.738 152.205 21.128 157.07 27.661 157.07H33.777V158.46H0Z" fill="white"/>
<path d="M611.276 133.85C646.304 133.85 664.235 108.552 664.235 83.393C664.235 58.512 646.721 33.77 611.276 33.77C576.943 33.77 559.846 58.79 559.846 83.81C559.846 108.83 576.943 133.85 611.276 133.85ZM605.299 37.94C658.119 37.94 674.382 129.541 616.002 129.541C564.433 129.541 551.784 37.94 605.299 37.94ZM596.403 80.752V82.42C606.133 82.42 610.164 90.343 610.164 100.768H611.693C611.693 90.343 615.724 82.42 625.454 82.42V80.752C615.724 80.752 611.693 72.829 611.693 62.404H610.164C610.164 72.829 606.133 80.752 596.403 80.752Z" fill="white"/>
<path d="M468.391 35.855H467.974V35.16H507.728C547.76 35.16 547.76 71.161 517.736 86.59C534.277 89.231 544.424 123.842 554.015 123.842C556.239 123.842 558.602 122.591 560.826 120.089L561.382 120.645C555.127 129.819 550.262 133.433 546.092 133.433C532.192 133.433 526.215 94.374 505.921 91.177L489.797 96.181V116.753C489.797 125.649 493.133 131.765 498.276 131.765H498.693V132.46H467.974V131.765H468.391C473.256 131.765 476.453 126.344 476.87 118.143V50.867C476.87 41.971 473.534 35.855 468.391 35.855ZM507.728 38.218H489.797V40.164V93.123L508.84 87.146C530.663 80.335 532.748 38.218 507.728 38.218Z" fill="white"/>
<path d="M392.378 131.07V132.46H362.771V131.348C371.945 131.348 375.837 123.147 385.428 102.297L416.286 35.16H419.205L455.762 121.201H455.901L457.708 125.51C459.098 128.846 462.573 131.07 466.326 131.07V132.46H435.051V131.07H435.607C441.028 131.07 443.252 127.873 441.167 122.869L440.75 122.035L440.333 120.784L432.271 100.907H389.042L386.123 107.162C381.397 117.448 379.312 131.07 392.378 131.07ZM411.977 51.145L390.432 97.849H431.02L411.977 51.145Z" fill="white"/>
<path d="M298.888 54.064H297.22L300.278 35.16H370.89L373.948 54.064H372.28C368.805 39.191 348.65 38.218 342.534 38.218H342.117V116.753C342.117 125.649 345.453 131.765 350.596 131.765H351.013V132.46H320.294V131.765H320.711C325.715 131.765 329.19 125.649 329.19 116.753V38.218H328.634C322.518 38.218 303.892 39.608 298.888 54.064Z" fill="white"/>
<path d="M664.235 83.3926C664.235 58.5118 646.721 33.7696 611.276 33.7696C576.944 33.7696 559.847 58.7898 559.847 83.8096L559.859 84.9825C560.385 109.606 577.48 133.85 611.276 133.85C646.304 133.85 664.235 108.552 664.235 83.3926ZM605.3 37.9405C658.119 37.9409 674.382 129.541 616.003 129.541C564.434 129.541 551.785 37.9405 605.3 37.9405ZM605.3 45.9405C594.551 45.9405 587.881 50.3584 583.868 56.586C579.614 63.1884 577.891 72.6111 579.181 82.7286C581.829 103.504 595.882 121.541 616.003 121.541C628.259 121.541 635.573 116.881 639.778 110.719C644.216 104.215 645.914 94.9399 644.437 84.9053C641.413 64.3658 626.342 45.9407 605.3 45.9405ZM610.164 62.4044C610.164 72.8292 606.133 80.752 596.403 80.752V82.42C606.133 82.42 610.164 90.3428 610.164 100.768H611.693C611.693 90.343 615.724 82.4202 625.454 82.42V80.752C616.028 80.7518 611.951 73.3165 611.705 63.3741L611.693 62.4044H610.164ZM672.235 83.3926C672.235 97.8204 667.1 112.443 656.732 123.523C646.257 134.716 630.851 141.85 611.276 141.85C592.017 141.85 576.961 134.76 566.778 123.607C556.715 112.584 551.847 98.079 551.847 83.8096C551.847 69.5404 556.715 55.036 566.778 44.0137C576.961 32.8598 592.017 25.7696 611.276 25.7696C630.98 25.7696 646.393 32.7088 656.854 43.7481C667.214 54.6796 672.235 69.1212 672.235 83.3926ZM619.693 62.4044C619.693 66.7806 620.571 69.5571 621.549 71.001C622.222 71.9952 623.13 72.7519 625.454 72.752H633.454V90.42H625.454C623.13 90.4201 622.222 91.1768 621.549 92.171C620.571 93.6149 619.693 96.3914 619.693 100.768V108.768H602.164V100.768C602.164 96.3912 601.286 93.6148 600.309 92.171C599.635 91.1768 598.727 90.42 596.403 90.42H588.403V72.752H596.403C598.727 72.752 599.635 71.9952 600.309 71.001C601.286 69.5572 602.164 66.7808 602.164 62.4044V54.4044H619.693V62.4044Z" fill="#291621"/>
<path d="M468.87 50.8672C468.87 47.2774 468.176 45.0005 467.577 43.9297C467.562 43.9031 467.546 43.8785 467.532 43.8546H459.974V27.1602H507.728C518.866 27.1602 528.121 29.6592 534.993 34.4747C541.997 39.383 546.061 46.404 546.951 54.1797C548.26 65.617 542.763 77.2271 532.79 85.9913C533.509 86.6595 534.194 87.3393 534.841 88.0215C538.824 92.2246 542.287 97.3539 545.201 101.865C548.306 106.671 550.667 110.56 552.938 113.478C553.524 114.23 554.017 114.799 554.42 115.222C554.55 115.095 554.693 114.947 554.847 114.774L560.483 108.433L571.726 119.675L567.992 125.151C564.651 130.052 561.367 133.949 558.005 136.685C554.614 139.444 550.624 141.433 546.092 141.433C538.601 141.433 533.533 136.179 530.445 132.133C527.189 127.865 524.146 122.209 521.446 117.452C518.549 112.348 515.825 107.839 512.809 104.424C510.424 101.724 508.263 100.18 506.202 99.4659L497.797 102.074V116.753C497.797 120.343 498.491 122.62 499.09 123.69C499.105 123.717 499.12 123.741 499.134 123.765H506.693V140.46H459.974V132.46H466.325V131.07C463.941 131.07 461.67 130.171 459.974 128.661V123.765H467.526C468.037 122.883 468.694 120.997 468.87 117.895V50.8672ZM507.728 38.2178C532.748 38.2178 530.663 80.3346 508.84 87.1456L489.797 93.1231V38.2178H507.728ZM497.797 82.2266L506.444 79.5128L506.457 79.5089C512.783 77.5341 517.749 69.5065 517.851 60.0421C517.898 55.5872 516.775 51.9474 515.081 49.6446C513.597 47.6264 511.421 46.2178 507.728 46.2178H497.797V82.2266ZM476.87 118.143C476.453 126.344 473.256 131.765 468.391 131.765H467.974V132.46H498.693V131.765H498.276C493.133 131.765 489.797 125.649 489.797 116.753V96.1807L505.921 91.1768C526.215 94.3738 532.192 133.432 546.092 133.433C550.262 133.433 555.127 129.819 561.382 120.645L560.826 120.089C558.602 122.591 556.239 123.842 554.015 123.842C544.424 123.841 534.277 89.2313 517.736 86.5899C547.76 71.1608 547.759 35.1602 507.728 35.1602H467.974V35.8546H468.391C473.534 35.8546 476.87 41.9712 476.87 50.8672V118.143Z" fill="#291621"/>
<path d="M424.498 27.1602L461.055 113.201H461.221L465.085 122.416L465.089 122.425L465.092 122.433C465.116 122.491 465.208 122.652 465.46 122.815C465.713 122.977 466.023 123.07 466.325 123.07H474.325V127.983C472.864 130.392 470.839 131.765 468.391 131.765H467.974V132.46H474.325V140.46H427.051V123.07H432.627L426.883 108.907H394.137L393.372 110.545C391.228 115.224 390.25 119.573 390.529 122.09C390.573 122.485 390.636 122.731 390.684 122.871C390.924 122.953 391.438 123.07 392.378 123.07H400.378V140.46H354.771V123.348H362.771C363.764 123.348 364.262 123.156 364.684 122.9C365.234 122.567 366.134 121.813 367.428 119.998C370.201 116.107 373.219 109.694 378.159 98.9542L411.158 27.1602H424.498ZM416.285 35.1602L385.428 102.297C375.837 123.147 371.945 131.348 362.771 131.348V132.46H392.378V131.07C379.312 131.07 381.396 117.448 386.122 107.162L389.042 100.907H432.271L440.333 120.784L440.75 122.035L441.167 122.869C443.252 127.873 441.027 131.07 435.606 131.07H435.051V132.46H466.325V131.07C462.572 131.07 459.098 128.846 457.708 125.51L455.9 121.201H455.762L419.204 35.1602H416.285ZM431.02 97.8487H390.432L411.977 51.1446L431.02 97.8487ZM402.933 89.8487H419.118L411.523 71.2247L402.933 89.8487Z" fill="#291621"/>
<path d="M342.117 38.2178H342.534C348.65 38.2178 368.805 39.191 372.28 54.0635H373.948L370.89 35.1602H300.278L297.22 54.0635H298.888C303.892 39.6081 322.518 38.2179 328.634 38.2178H329.19V116.753L329.18 117.579C328.971 126.025 325.558 131.765 320.711 131.765H320.294V132.46H351.013V131.765H350.596C345.614 131.764 342.328 126.025 342.127 117.579L342.117 116.753V38.2178ZM350.117 116.753C350.117 120.343 350.811 122.62 351.41 123.69C351.425 123.717 351.44 123.741 351.454 123.765H359.013V140.46H312.294V123.765H319.798C319.818 123.731 319.842 123.695 319.864 123.655C320.48 122.567 321.19 120.289 321.19 116.753V46.9024C319.515 47.2083 317.751 47.6424 316.029 48.2559C311.233 49.9649 307.855 52.6174 306.448 56.6807L304.585 62.0635H287.822L293.468 27.1602H377.7L383.347 62.0635H365.934L364.49 55.8839C363.658 52.3226 360.854 49.8337 355.843 48.1446C353.952 47.5072 351.983 47.0766 350.117 46.7872V116.753Z" fill="#291621"/>
</svg>
