<svg width="546" height="51" viewBox="0 0 546 51" fill="none" xmlns="http://www.w3.org/2000/svg">
<path d="M545.385 49.35H545.596V49.7H530.125V49.35H530.336C532.786 49.35 534.395 46.62 534.605 42.49V8.61001C534.605 4.13001 532.926 1.05001 530.336 1.05001H530.125V0.700012H545.596V1.05001H545.385C542.795 1.05001 541.115 4.13001 541.115 8.61001V41.79C541.115 46.27 542.795 49.35 545.385 49.35Z" fill="black"/>
<path d="M482.826 1.05001H482.616V0.700012H502.636C522.796 0.700012 522.796 18.83 507.676 26.6C516.006 27.93 521.116 45.36 525.946 45.36C527.066 45.36 528.256 44.73 529.376 43.47L529.656 43.75C526.506 48.37 524.056 50.19 521.956 50.19C514.956 50.19 511.946 30.52 501.726 28.91L493.606 31.43V41.79C493.606 46.27 495.286 49.35 497.876 49.35H498.086V49.7H482.616V49.35H482.826C485.276 49.35 486.886 46.62 487.096 42.49V8.61001C487.096 4.13001 485.416 1.05001 482.826 1.05001ZM502.636 2.24001H493.606V3.22001V29.89L503.196 26.88C514.186 23.45 515.236 2.24001 502.636 2.24001Z" fill="black"/>
<path d="M481.401 49.35H481.611V49.7H466.141V49.35H466.351C468.801 49.35 470.411 46.62 470.621 42.49V8.61001C470.621 4.13001 468.941 1.05001 466.351 1.05001H466.141V0.700012H481.611V1.05001H481.401C478.811 1.05001 477.131 4.13001 477.131 8.61001V41.79C477.131 46.27 478.811 49.35 481.401 49.35Z" fill="black"/>
<path d="M423.081 1.05001H422.871V0.700012H443.521C454.021 0.700012 460.881 5.25001 460.881 10.5C460.881 14.84 457.101 19.74 449.121 22.89C458.921 22.89 463.891 29.12 463.891 35.56C463.891 42.49 456.821 49.7 445.411 49.7H422.871V49.35H423.081C425.601 49.35 427.351 46.27 427.351 41.79V8.61001C427.351 4.13001 425.601 1.05001 423.081 1.05001ZM433.861 26.32L446.251 22.33C457.871 18.62 455.841 2.24001 444.921 2.24001H433.861V26.32ZM446.461 23.87L433.861 27.86V48.16H444.991C460.811 48.16 459.971 23.87 446.951 23.87H446.461Z" fill="black"/>
<path d="M393.557 1.05001C390.967 1.05001 389.287 4.13001 389.287 8.61001V34.72C389.287 53.34 415.887 53.41 415.887 31.08V13.3C415.887 6.51001 413.157 1.40001 407.137 1.40001V0.700012H421.907V1.05001H421.697C419.317 1.05001 417.567 7.00002 417.427 11.41V31.15C417.427 44.45 408.257 50.4 400.557 50.4C389.567 50.4 382.777 44.45 382.777 31.15V8.61001C382.777 4.13001 381.027 1.05001 378.507 1.05001H378.297V0.700012H393.767V1.05001H393.557Z" fill="black"/>
<path d="M341.656 9.80001H340.676L342.636 0.700012H375.116L348.376 48.3H356.076C365.946 48.3 372.736 42.63 375.116 38.01H376.096L372.946 49.7H340.186L366.996 2.31001H358.526C353.836 2.31001 345.996 3.71002 341.656 9.80001Z" fill="black"/>
<path d="M287.907 50.4C305.547 50.4 314.577 37.66 314.577 24.99C314.577 12.46 305.757 0 287.907 0C270.617 0 262.007 12.6 262.007 25.2C262.007 37.8 270.617 50.4 287.907 50.4ZM284.897 2.1C311.497 2.1 319.687 48.23 290.287 48.23C264.317 48.23 257.947 2.1 284.897 2.1ZM280.417 23.66V24.5C285.317 24.5 287.347 28.49 287.347 33.74H288.117C288.117 28.49 290.147 24.5 295.047 24.5V23.66C290.147 23.66 288.117 19.67 288.117 14.42H287.347C287.347 19.67 285.317 23.66 280.417 23.66Z" fill="black"/>
<path d="M215.951 1.05001H215.741V0.700012H235.761C255.921 0.700012 255.921 18.83 240.801 26.6C249.131 27.93 254.241 45.36 259.071 45.36C260.191 45.36 261.381 44.73 262.501 43.47L262.781 43.75C259.631 48.37 257.181 50.19 255.081 50.19C248.081 50.19 245.071 30.52 234.851 28.91L226.731 31.43V41.79C226.731 46.27 228.411 49.35 231.001 49.35H231.211V49.7H215.741V49.35H215.951C218.401 49.35 220.011 46.62 220.221 42.49V8.61001C220.221 4.13001 218.541 1.05001 215.951 1.05001ZM235.761 2.24001H226.731V3.22001V29.89L236.321 26.88C247.311 23.45 248.361 2.24001 235.761 2.24001Z" fill="black"/>
<path d="M177.67 49V49.7H162.76V49.14C167.38 49.14 169.34 45.01 174.17 34.51L189.71 0.700012H191.18L209.59 44.03H209.66L210.57 46.2C211.27 47.88 213.02 49 214.91 49V49.7H199.16V49H199.44C202.17 49 203.29 47.39 202.24 44.87L202.03 44.45L201.82 43.82L197.76 33.81H175.99L174.52 36.96C172.14 42.14 171.09 49 177.67 49ZM187.54 8.75001L176.69 32.27H197.13L187.54 8.75001Z" fill="black"/>
<path d="M130.59 10.22H129.75L131.29 0.700012H166.85L168.39 10.22H167.55C165.8 2.73001 155.65 2.24001 152.57 2.24001H152.36V41.79C152.36 46.27 154.04 49.35 156.63 49.35H156.84V49.7H141.37V49.35H141.58C144.1 49.35 145.85 46.27 145.85 41.79V2.24001H145.57C142.49 2.24001 133.11 2.94001 130.59 10.22Z" fill="black"/>
<path d="M100.296 1.05001C97.7056 1.05001 96.0257 4.13001 96.0257 8.61001V34.72C96.0257 53.34 122.626 53.41 122.626 31.08V13.3C122.626 6.51001 119.896 1.40001 113.876 1.40001V0.700012H128.646V1.05001H128.436C126.056 1.05001 124.306 7.00002 124.166 11.41V31.15C124.166 44.45 114.996 50.4 107.296 50.4C96.3056 50.4 89.5156 44.45 89.5156 31.15V8.61001C89.5156 4.13001 87.7656 1.05001 85.2456 1.05001H85.0356V0.700012H100.506V1.05001H100.296Z" fill="black"/>
<path d="M50.18 49V49.7H35.27V49.14C39.89 49.14 41.85 45.01 46.68 34.51L62.22 0.700012H63.69L82.1 44.03H82.17L83.08 46.2C83.78 47.88 85.53 49 87.42 49V49.7H71.67V49H71.95C74.68 49 75.8 47.39 74.75 44.87L74.54 44.45L74.33 43.82L70.27 33.81H48.5L47.03 36.96C44.65 42.14 43.6 49 50.18 49ZM60.05 8.75001L49.2 32.27H69.64L60.05 8.75001Z" fill="black"/>
<path d="M32.76 38.85H33.46L31.22 49.7H0V49.35H0.21C2.8 49.35 4.48 46.27 4.48 41.79V8.61001C4.48 4.13001 2.8 1.05001 0.21 1.05001H0V0.700012H15.47V1.05001H15.26C12.74 1.05001 10.99 4.13001 10.99 8.61001V48.16H17.36C23.17 48.16 29.26 44.31 32.76 38.85Z" fill="black"/>
</svg>
