<svg width="1349" height="305" viewBox="0 0 1349 305" fill="none" xmlns="http://www.w3.org/2000/svg">
<path d="M1189.84 155.62V116.482H1192.17C1192.17 164.938 1225.02 193.127 1270.45 193.127H1271.85C1304.23 192.428 1341.04 168.433 1341.04 120.675C1341.04 44.0301 1263.69 28.4215 1230.15 0.465912H1244.59C1281.63 25.393 1348.72 46.5927 1348.72 111.124C1348.72 177.052 1301.2 195.223 1268.58 195.223C1236.67 194.991 1215 182.178 1201.96 161.677C1199.39 157.716 1196.6 156.319 1194.04 155.62C1193.57 155.387 1192.87 155.387 1191.94 155.387C1191.01 155.387 1190.31 155.387 1189.84 155.62ZM1210.34 249.271C1210.34 244.612 1211.28 240.418 1213.37 236.458C1219.9 223.412 1234.11 213.861 1249.25 209.9C1256.7 208.036 1263.69 207.105 1269.98 207.105H1273.48C1274.64 207.105 1275.57 207.105 1276.74 207.338C1297.94 209.201 1317.04 220.151 1326.59 232.265C1327.52 233.429 1328.92 234.128 1330.79 234.128C1331.48 234.128 1334.28 233.662 1338.71 233.662V270.471H1336.38C1335.21 249.737 1312.38 212.696 1275.81 209.667C1275.11 209.434 1274.41 209.434 1273.71 209.434H1271.38C1262.06 209.434 1248.32 211.764 1236.2 218.52C1224.09 225.276 1216.87 235.06 1216.87 245.311C1216.87 246.941 1217.1 248.106 1217.33 249.737C1218.26 255.561 1221.06 261.152 1225.72 266.277H1215C1211.97 261.385 1210.34 255.095 1210.34 249.271Z" fill="#823361"/>
<path d="M1017.8 135.585H1015.47V95.0491H1180.64V135.585H1178.31V125.334C1178.31 109.027 1172.72 97.1458 1147.56 97.1458H1102.83V266.044H1093.28V97.1458H1048.55C1023.39 97.1458 1017.8 109.027 1017.8 125.334V135.585ZM1069.75 73.8494H1080C1090.48 73.8494 1093.28 65.4628 1093.28 51.252V0.465912H1102.83V51.252C1102.83 65.4628 1105.16 73.8494 1116.11 73.8494H1126.36V75.9461H1069.75V73.8494Z" fill="#823361"/>
<path d="M645.2 0.232971H763.312V41.0016H760.983V30.5182C760.983 16.5404 755.392 2.5626 730.232 2.5626H678.281V116.482H699.48C714.623 116.482 722.311 109.26 722.311 95.0491V84.7987H724.641V150.262H722.311V138.38C722.311 125.101 713.458 118.578 699.48 118.578H678.281V264.181C780.552 268.84 838.094 298.193 900.295 298.193C924.523 298.193 948.053 293.767 976.008 281.886L977.173 283.75C944.558 299.358 916.835 304.716 889.579 304.716C818.292 304.716 756.324 266.044 645.2 266.044V263.715H655.45C666.4 263.715 668.729 255.328 668.729 241.35V25.1601C668.729 10.9493 666.4 2.5626 655.45 2.5626H645.2V0.232971ZM763.312 134.886C763.312 60.3376 819.457 1.63073 894.005 1.63073C916.37 1.63073 935.24 6.9889 952.013 16.3075C955.973 18.87 959.934 20.0349 963.894 20.0349C968.553 20.0349 972.747 18.6371 976.241 15.6086L998.14 67.0935H996.276C976.94 28.6545 940.598 3.9604 894.238 3.9604C821.786 3.9604 776.824 62.6672 776.824 134.886C776.824 207.338 821.786 265.811 894.238 265.811C947.354 265.811 986.026 234.361 1002.8 187.07H1006.06C1005.36 189.632 1001.87 201.979 998.14 214.326C996.043 221.548 993.713 229.469 991.151 238.089C987.656 235.526 984.628 234.361 981.599 234.361C978.105 234.361 975.076 235.759 972.048 238.788C951.547 257.425 925.222 268.141 894.238 268.141C819.457 268.141 763.312 209.667 763.312 134.886Z" fill="#823361"/>
<path d="M517.461 244.845H528.177C533.536 256.726 545.184 263.948 558.23 263.948C598.532 263.948 597.368 228.071 598.067 208.735V75.0143C597.368 62.9002 594.339 55.6783 584.788 55.6783H574.537V53.3487H631.147V55.6783H620.664C610.647 55.6783 607.618 63.3661 607.385 76.4121V208.502C607.385 230.867 602.959 266.044 557.065 266.044C537.496 266.044 526.547 259.056 517.461 244.845ZM584.788 18.4041C596.669 16.3074 601.794 9.5515 602.726 0.465912C604.357 10.0174 610.414 16.0745 620.897 18.4041C610.414 21.1997 604.357 27.2567 602.726 36.5753C601.095 26.5579 595.737 20.9667 584.788 18.4041Z" fill="#823361"/>
<path d="M181.093 266.044V263.715H191.343C201.827 263.715 204.622 255.328 204.622 241.35V23.0634C204.389 10.0174 201.361 2.56261 191.343 2.56261H181.093V0.465923H250.982C303.166 0.465923 348.128 17.7052 348.128 76.1791C348.128 129.295 301.302 150.727 251.215 153.756C318.308 167.734 317.144 258.124 377.481 278.624C388.43 282.119 399.613 283.983 410.562 283.983C433.159 283.983 455.99 277.693 472.763 266.743C489.537 255.794 496.758 242.049 496.758 229.935C496.758 227.838 496.525 225.975 496.292 223.878C492.565 200.815 460.416 188.002 429.898 169.365C398.914 150.727 369.327 127.198 369.327 84.0999C369.327 18.4041 417.085 0 449.467 0C481.383 0.232974 503.048 13.046 516.094 33.5468C518.657 37.5071 521.453 39.1379 524.015 39.8368C524.481 40.0697 525.18 40.0697 526.112 40.0697C527.044 40.0697 527.743 40.0697 528.208 39.8368V78.9747H526.112C526.112 56.6101 519.123 37.2742 505.145 23.2964C492.099 10.0174 472.53 2.32964 449.001 2.32964H446.205C413.823 2.32964 377.015 26.7908 377.015 74.5484C377.015 167.967 489.769 169.597 502.117 215.491C503.048 219.452 503.514 223.412 503.514 226.907C503.514 238.788 497.923 253.231 480.218 266.277C462.513 279.09 437.353 286.312 412.193 286.312C400.079 286.312 388.197 284.681 377.015 280.954C302.7 256.26 301.535 156.552 240.731 153.989V152.125C289.654 151.426 338.809 130.693 338.809 76.4121C338.11 30.5182 317.144 4.42632 250.982 2.56261H214.174V241.35C214.174 255.561 216.503 263.715 227.453 263.715H237.703V266.044H181.093Z" fill="#823361"/>
<path d="M0 266.044V263.715H10.2504C21.1997 263.715 23.5293 255.328 23.5293 241.35V23.0634C23.2964 10.0174 20.2678 2.5626 10.2504 2.5626H0V0.465912H69.8891C136.517 0.465912 166.336 32.149 167.035 80.6054C167.035 137.448 113.453 160.745 59.6387 161.444V159.58C108.561 158.881 157.716 134.886 157.716 80.8384C157.017 34.9445 136.051 4.42631 69.8891 2.5626H33.0808V241.35C33.0808 255.561 35.4105 263.715 46.3598 263.715H56.6101V266.044H0Z" fill="#823361"/>
</svg>
